<svg xmlns="http://www.w3.org/2000/svg" viewBox="0 0 600 445" class="esq-svg" role="img" aria-label="Esquemático do circuito"><defs><marker id="esq-arrow-curr" viewBox="0 0 10 10" refX="9" refY="5" markerWidth="7" markerHeight="7" orient="auto-start-reverse"><path d="M0,0 L10,5 L0,10 z" fill="var(--esq-stroke)"/></marker></defs><line x1="40" y1="365" x2="560" y2="365" stroke="var(--esq-wire)" stroke-width="2"/><g class="esq-gnd"><line x1="286" y1="373" x2="314" y2="373" stroke="var(--esq-gnd)" stroke-width="2.5" stroke-linecap="round"/><line x1="291" y1="379" x2="309" y2="379" stroke="var(--esq-gnd)" stroke-width="2.5" stroke-linecap="round"/><line x1="296" y1="385" x2="304" y2="385" stroke="var(--esq-gnd)" stroke-width="2.5" stroke-linecap="round"/><text x="322" y="379" font-size="11" fill="var(--esq-gnd)" dominant-baseline="central">GND</text></g><line x1="80" y1="131" x2="80" y2="95" stroke="var(--esq-wire)" stroke-width="2"/><line x1="280" y1="131" x2="280" y2="95" stroke="var(--esq-wire)" stroke-width="2"/><line x1="80" y1="95" x2="155" y2="95" stroke="var(--esq-wire)" stroke-width="2"/><g class="esq-sym"><title>R1 (R = 100) Z_R = R Z = 100 Ω Z = 100 ∠ 0° Ω</title><path d="M 155.00,95.00 L 162.14,89.00 L 169.29,101.00 L 176.43,89.00 L 183.57,101.00 L 190.71,89.00 L 197.86,101.00 L 205.00,95.00" fill="none" stroke="var(--esq-stroke)" stroke-width="2" stroke-linejoin="round" stroke-linecap="round"/><text x="180" y="81" text-anchor="middle" dominant-baseline="auto" class="esq-label--name">R1</text><text x="180" y="113" text-anchor="middle" dominant-baseline="hanging" class="esq-label--val">100Ω</text></g><line x1="205" y1="95" x2="280" y2="95" stroke="var(--esq-wire)" stroke-width="2"/><line x1="80" y1="145" x2="80" y2="230" stroke="var(--esq-wire)" stroke-width="2"/><line x1="80" y1="280" x2="80" y2="365" stroke="var(--esq-wire)" stroke-width="2"/><g class="esq-sym"><line x1="80" y1="230" x2="80" y2="237" stroke="var(--esq-wire)" stroke-width="2"/><line x1="80" y1="273" x2="80" y2="280" stroke="var(--esq-wire)" stroke-width="2"/><circle cx="80" cy="255" r="18" fill="var(--esq-bg)" stroke="var(--esq-stroke)" stroke-width="2"/><text x="80" y="247" text-anchor="middle" dominant-baseline="central" font-size="14" font-weight="700" fill="var(--esq-stroke)">+</text><text x="80" y="263" text-anchor="middle" dominant-baseline="central" font-size="16" font-weight="700" fill="var(--esq-stroke)">−</text><text x="104" y="249" text-anchor="start" dominant-baseline="auto" class="esq-label--name">V1</text><text x="104" y="263" text-anchor="start" dominant-baseline="hanging" class="esq-label--val">10V</text></g><line x1="280" y1="145" x2="280" y2="230" stroke="var(--esq-wire)" stroke-width="2"/><line x1="280" y1="280" x2="280" y2="365" stroke="var(--esq-wire)" stroke-width="2"/><g class="esq-sym"><title>R2 (R = 100) Z_R = R Z = 100 Ω Z = 100 ∠ 0° Ω</title><path d="M 280.00,230.00 L 274.00,237.14 L 286.00,244.29 L 274.00,251.43 L 286.00,258.57 L 274.00,265.71 L 286.00,272.86 L 280.00,280.00" fill="none" stroke="var(--esq-stroke)" stroke-width="2" stroke-linejoin="round" stroke-linecap="round"/><text x="294" y="249" text-anchor="start" dominant-baseline="auto" class="esq-label--name">R2</text><text x="294" y="263" text-anchor="start" dominant-baseline="hanging" class="esq-label--val">100Ω</text></g><circle cx="80" cy="145" r="14" fill="var(--esq-node-fill)" stroke="var(--esq-node-stroke)" stroke-width="2"/><text x="80" y="145" class="esq-label--node">1</text><circle cx="280" cy="145" r="14" fill="var(--esq-node-fill)" stroke="var(--esq-node-stroke)" stroke-width="2"/><text x="280" y="145" class="esq-label--node">2</text></svg>