<svg xmlns="http://www.w3.org/2000/svg" viewBox="0 0 600 390" class="esq-svg" role="img" aria-label="Esquemático do circuito"><defs><marker id="esq-arrow-curr" viewBox="0 0 10 10" refX="9" refY="5" markerWidth="7" markerHeight="7" orient="auto-start-reverse"><path d="M0,0 L10,5 L0,10 z" fill="var(--esq-stroke)"/></marker></defs><line x1="40" y1="310" x2="560" y2="310" stroke="var(--esq-wire)" stroke-width="2"/><g class="esq-gnd"><line x1="286" y1="318" x2="314" y2="318" stroke="var(--esq-gnd)" stroke-width="2.5" stroke-linecap="round"/><line x1="291" y1="324" x2="309" y2="324" stroke="var(--esq-gnd)" stroke-width="2.5" stroke-linecap="round"/><line x1="296" y1="330" x2="304" y2="330" stroke="var(--esq-gnd)" stroke-width="2.5" stroke-linecap="round"/><text x="322" y="324" font-size="11" fill="var(--esq-gnd)" dominant-baseline="central">GND</text></g><line x1="80" y1="90" x2="80" y2="175" stroke="var(--esq-wire)" stroke-width="2"/><line x1="80" y1="225" x2="80" y2="310" stroke="var(--esq-wire)" stroke-width="2"/><g class="esq-sym"><line x1="80" y1="175" x2="80" y2="182" stroke="var(--esq-wire)" stroke-width="2"/><line x1="80" y1="218" x2="80" y2="225" stroke="var(--esq-wire)" stroke-width="2"/><circle cx="80" cy="200" r="18" fill="var(--esq-bg)" stroke="var(--esq-stroke)" stroke-width="2"/><text x="80" y="192" text-anchor="middle" dominant-baseline="central" font-size="14" font-weight="700" fill="var(--esq-stroke)">+</text><text x="80" y="208" text-anchor="middle" dominant-baseline="central" font-size="16" font-weight="700" fill="var(--esq-stroke)">−</text><text x="104" y="194" text-anchor="start" dominant-baseline="auto" class="esq-label--name">V1</text><text x="104" y="208" text-anchor="start" dominant-baseline="hanging" class="esq-label--val">10V</text></g><line x1="480" y1="90" x2="480" y2="175" stroke="var(--esq-wire)" stroke-width="2"/><line x1="480" y1="225" x2="480" y2="310" stroke="var(--esq-wire)" stroke-width="2"/><g class="esq-sym"><title>R1 (R = 100) Z_R = R Z = 100 Ω Z = 100 ∠ 0° Ω</title><path d="M 480.00,175.00 L 474.00,182.14 L 486.00,189.29 L 474.00,196.43 L 486.00,203.57 L 474.00,210.71 L 486.00,217.86 L 480.00,225.00" fill="none" stroke="var(--esq-stroke)" stroke-width="2" stroke-linejoin="round" stroke-linecap="round"/><text x="494" y="194" text-anchor="start" dominant-baseline="auto" class="esq-label--name">R1</text><text x="494" y="208" text-anchor="start" dominant-baseline="hanging" class="esq-label--val">100Ω</text></g><g class="esq-trafo-wires" data-nome="T1"><path class="trafo-stub" fill="none" d="M 80 90 L 80 122 L 125 122"/><path class="trafo-stub" fill="none" d="M 80 310 L 80 197 L 125 197"/><path class="trafo-stub" fill="none" d="M 280 90 L 280 122 L 201 122"/><path class="trafo-stub" fill="none" d="M 280 310 L 280 197 L 201 197"/></g><g class="esq-trafo" data-nome="T1"><path class="trafo-coil trafo-coil--pri" d="M 125,126 Q 135,133.11875 125,140.2375"/><path class="trafo-coil trafo-coil--pri" d="M 125,142.75 Q 135,149.86875 125,156.9875"/><path class="trafo-coil trafo-coil--pri" d="M 125,159.5 Q 135,166.61875 125,173.7375"/><path class="trafo-coil trafo-coil--pri" d="M 125,176.25 Q 135,183.36875 125,190.4875"/><path class="trafo-coil trafo-coil--sec" d="M 201,126 Q 211,133.11875 201,140.2375"/><path class="trafo-coil trafo-coil--sec" d="M 201,142.75 Q 211,149.86875 201,156.9875"/><path class="trafo-coil trafo-coil--sec" d="M 201,159.5 Q 211,166.61875 201,173.7375"/><path class="trafo-coil trafo-coil--sec" d="M 201,176.25 Q 211,183.36875 201,190.4875"/><line class="trafo-nucleo" x1="159" y1="124" x2="159" y2="195"/><line class="trafo-nucleo" x1="167" y1="124" x2="167" y2="195"/><circle class="trafo-dot trafo-dot--pri" cx="137" cy="124" r="3.5"/><text class="trafo-pol-label trafo-pol-label--pri" x="137" y="119" text-anchor="middle">+</text><circle class="trafo-dot trafo-dot--sec" cx="189" cy="124" r="3.5"/><text class="trafo-pol-label trafo-pol-label--sec" x="189" y="119" text-anchor="middle">+</text><text class="trafo-symbol-name" x="163" y="211" text-anchor="middle">T1</text></g><g class="esq-trafo-wires" data-nome="T2"><path class="trafo-stub" fill="none" d="M 280 90 L 280 207 L 359 207"/><path class="trafo-stub" fill="none" d="M 280 310 L 280 282 L 359 282"/><path class="trafo-stub" fill="none" d="M 480 90 L 480 207 L 435 207"/><path class="trafo-stub" fill="none" d="M 480 310 L 480 282 L 435 282"/></g><g class="esq-trafo" data-nome="T2"><path class="trafo-coil trafo-coil--pri" d="M 359,211 Q 369,218.11875 359,225.2375"/><path class="trafo-coil trafo-coil--pri" d="M 359,227.75 Q 369,234.86875 359,241.9875"/><path class="trafo-coil trafo-coil--pri" d="M 359,244.5 Q 369,251.61875 359,258.7375"/><path class="trafo-coil trafo-coil--pri" d="M 359,261.25 Q 369,268.36875 359,275.4875"/><path class="trafo-coil trafo-coil--sec" d="M 435,211 Q 445,218.11875 435,225.2375"/><path class="trafo-coil trafo-coil--sec" d="M 435,227.75 Q 445,234.86875 435,241.9875"/><path class="trafo-coil trafo-coil--sec" d="M 435,244.5 Q 445,251.61875 435,258.7375"/><path class="trafo-coil trafo-coil--sec" d="M 435,261.25 Q 445,268.36875 435,275.4875"/><line class="trafo-nucleo" x1="393" y1="209" x2="393" y2="280"/><line class="trafo-nucleo" x1="401" y1="209" x2="401" y2="280"/><circle class="trafo-dot trafo-dot--pri" cx="371" cy="209" r="3.5"/><text class="trafo-pol-label trafo-pol-label--pri" x="371" y="204" text-anchor="middle">+</text><circle class="trafo-dot trafo-dot--sec" cx="423" cy="209" r="3.5"/><text class="trafo-pol-label trafo-pol-label--sec" x="423" y="204" text-anchor="middle">+</text><text class="trafo-symbol-name" x="397" y="296" text-anchor="middle">T2</text></g><circle cx="80" cy="90" r="14" fill="var(--esq-node-fill)" stroke="var(--esq-node-stroke)" stroke-width="2"/><text x="80" y="90" class="esq-label--node">1</text><circle cx="280" cy="90" r="14" fill="var(--esq-node-fill)" stroke="var(--esq-node-stroke)" stroke-width="2"/><text x="280" y="90" class="esq-label--node">2</text><circle cx="480" cy="90" r="14" fill="var(--esq-node-fill)" stroke="var(--esq-node-stroke)" stroke-width="2"/><text x="480" y="90" class="esq-label--node">3</text></svg>