<svg xmlns="http://www.w3.org/2000/svg" viewBox="0 0 760 445" class="esq-svg" role="img" aria-label="Esquemático do circuito"><defs><marker id="esq-arrow-curr" viewBox="0 0 10 10" refX="9" refY="5" markerWidth="7" markerHeight="7" orient="auto-start-reverse"><path d="M0,0 L10,5 L0,10 z" fill="var(--esq-stroke)"/></marker></defs><line x1="40" y1="365" x2="720" y2="365" stroke="var(--esq-wire)" stroke-width="2"/><g class="esq-gnd"><line x1="366" y1="373" x2="394" y2="373" stroke="var(--esq-gnd)" stroke-width="2.5" stroke-linecap="round"/><line x1="371" y1="379" x2="389" y2="379" stroke="var(--esq-gnd)" stroke-width="2.5" stroke-linecap="round"/><line x1="376" y1="385" x2="384" y2="385" stroke="var(--esq-gnd)" stroke-width="2.5" stroke-linecap="round"/><text x="402" y="379" font-size="11" fill="var(--esq-gnd)" dominant-baseline="central">GND</text></g><line x1="80" y1="131" x2="80" y2="95" stroke="var(--esq-wire)" stroke-width="2"/><line x1="280" y1="131" x2="280" y2="95" stroke="var(--esq-wire)" stroke-width="2"/><line x1="80" y1="95" x2="155" y2="95" stroke="var(--esq-wire)" stroke-width="2"/><g class="esq-sym"><title>R1 (R = 30k) Z_R = R Z = 30.0 k Ω Z = 30.0 k ∠ 0° Ω</title><path d="M 155.00,95.00 L 162.14,89.00 L 169.29,101.00 L 176.43,89.00 L 183.57,101.00 L 190.71,89.00 L 197.86,101.00 L 205.00,95.00" fill="none" stroke="var(--esq-stroke)" stroke-width="2" stroke-linejoin="round" stroke-linecap="round"/><text x="180" y="81" text-anchor="middle" dominant-baseline="auto" class="esq-label--name">R1</text><text x="180" y="113" text-anchor="middle" dominant-baseline="hanging" class="esq-label--val">30kΩ</text></g><line x1="205" y1="95" x2="280" y2="95" stroke="var(--esq-wire)" stroke-width="2"/><line x1="480" y1="131" x2="480" y2="95" stroke="var(--esq-wire)" stroke-width="2"/><line x1="680" y1="131" x2="680" y2="95" stroke="var(--esq-wire)" stroke-width="2"/><line x1="480" y1="95" x2="555" y2="95" stroke="var(--esq-wire)" stroke-width="2"/><g class="esq-sym"><title>R2 (R = 15k) Z_R = R Z = 15.0 k Ω Z = 15.0 k ∠ 0° Ω</title><path d="M 555.00,95.00 L 562.14,89.00 L 569.29,101.00 L 576.43,89.00 L 583.57,101.00 L 590.71,89.00 L 597.86,101.00 L 605.00,95.00" fill="none" stroke="var(--esq-stroke)" stroke-width="2" stroke-linejoin="round" stroke-linecap="round"/><text x="580" y="81" text-anchor="middle" dominant-baseline="auto" class="esq-label--name">R2</text><text x="580" y="113" text-anchor="middle" dominant-baseline="hanging" class="esq-label--val">15kΩ</text></g><line x1="605" y1="95" x2="680" y2="95" stroke="var(--esq-wire)" stroke-width="2"/><line x1="80" y1="145" x2="80" y2="230" stroke="var(--esq-wire)" stroke-width="2"/><line x1="80" y1="280" x2="80" y2="365" stroke="var(--esq-wire)" stroke-width="2"/><g class="esq-sym"><line x1="80" y1="230" x2="80" y2="237" stroke="var(--esq-wire)" stroke-width="2"/><line x1="80" y1="273" x2="80" y2="280" stroke="var(--esq-wire)" stroke-width="2"/><circle cx="80" cy="255" r="18" fill="var(--esq-bg)" stroke="var(--esq-stroke)" stroke-width="2"/><text x="80" y="247" text-anchor="middle" dominant-baseline="central" font-size="14" font-weight="700" fill="var(--esq-stroke)">+</text><text x="80" y="263" text-anchor="middle" dominant-baseline="central" font-size="16" font-weight="700" fill="var(--esq-stroke)">−</text><text x="104" y="249" text-anchor="start" dominant-baseline="auto" class="esq-label--name">V1</text><text x="104" y="263" text-anchor="start" dominant-baseline="hanging" class="esq-label--val">220V</text></g><line x1="680" y1="145" x2="680" y2="230" stroke="var(--esq-wire)" stroke-width="2"/><line x1="680" y1="280" x2="680" y2="365" stroke="var(--esq-wire)" stroke-width="2"/><g class="esq-sym"><title>C1 (C = 100u) Z_C → ∞ (DC: aberto)</title><line x1="680" y1="230" x2="680" y2="251" stroke="var(--esq-wire)" stroke-width="2"/><line x1="680" y1="259" x2="680" y2="280" stroke="var(--esq-wire)" stroke-width="2"/><line x1="671" y1="251" x2="689" y2="251" stroke="var(--esq-stroke)" stroke-width="2.5" stroke-linecap="round"/><line x1="671" y1="259" x2="689" y2="259" stroke="var(--esq-stroke)" stroke-width="2.5" stroke-linecap="round"/><text x="694" y="249" text-anchor="start" dominant-baseline="auto" class="esq-label--name">C1</text><text x="694" y="263" text-anchor="start" dominant-baseline="hanging" class="esq-label--val">100uF</text></g><g class="esq-trafo-wires" data-nome="T1"><path class="trafo-stub" fill="none" d="M 280 145 L 280 177 L 342 177"/><path class="trafo-stub" fill="none" d="M 480 145 L 480 177 L 418 177"/><path class="trafo-stub" fill="none" d="M 480 365 L 480 255 L 418 255"/></g><g class="esq-trafo" data-nome="T1"><path class="trafo-coil trafo-coil--pri" d="M 342,181 Q 352,188.4375 342,195.875"/><path class="trafo-coil trafo-coil--pri" d="M 342,198.5 Q 352,205.9375 342,213.375"/><path class="trafo-coil trafo-coil--pri" d="M 342,216 Q 352,223.4375 342,230.875"/><path class="trafo-coil trafo-coil--pri" d="M 342,233.5 Q 352,240.9375 342,248.375"/><path class="trafo-coil trafo-coil--sec" d="M 418,181 Q 428,188.4375 418,195.875"/><path class="trafo-coil trafo-coil--sec" d="M 418,198.5 Q 428,205.9375 418,213.375"/><path class="trafo-coil trafo-coil--sec" d="M 418,216 Q 428,223.4375 418,230.875"/><path class="trafo-coil trafo-coil--sec" d="M 418,233.5 Q 428,240.9375 418,248.375"/><line class="trafo-nucleo" x1="376" y1="179" x2="376" y2="253"/><line class="trafo-nucleo" x1="384" y1="179" x2="384" y2="253"/><circle class="trafo-dot trafo-dot--pri" cx="354" cy="179" r="3.5"/><text class="trafo-pol-label trafo-pol-label--pri" x="354" y="174" text-anchor="middle">+</text><circle class="trafo-dot trafo-dot--sec" cx="406" cy="179" r="3.5"/><text class="trafo-pol-label trafo-pol-label--sec" x="406" y="174" text-anchor="middle">+</text><text class="trafo-symbol-name" x="380" y="269" text-anchor="middle">T1</text></g><line class="trafo-stub" x1="342" y1="255" x2="342" y2="281" stroke="var(--esq-wire)" stroke-width="2"/><g class="esq-sym"><title>R3 (R = 1k) Z_R = R Z = 1.00 k Ω Z = 1.00 k ∠ 0° Ω</title><path d="M 342.00,281.00 L 336.00,288.14 L 348.00,295.29 L 336.00,302.43 L 348.00,309.57 L 336.00,316.71 L 348.00,323.86 L 342.00,331.00" fill="none" stroke="var(--esq-stroke)" stroke-width="2" stroke-linejoin="round" stroke-linecap="round"/><text x="356" y="300" text-anchor="start" dominant-baseline="auto" class="esq-label--name">R3</text><text x="356" y="314" text-anchor="start" dominant-baseline="hanging" class="esq-label--val">1kΩ</text></g><line class="trafo-stub" x1="342" y1="331" x2="342" y2="365" stroke="var(--esq-wire)" stroke-width="2"/><text x="360" y="306" class="esq-label--node esq-label--branch">5</text><circle cx="80" cy="145" r="14" fill="var(--esq-node-fill)" stroke="var(--esq-node-stroke)" stroke-width="2"/><text x="80" y="145" class="esq-label--node">1</text><circle cx="280" cy="145" r="14" fill="var(--esq-node-fill)" stroke="var(--esq-node-stroke)" stroke-width="2"/><text x="280" y="145" class="esq-label--node">2</text><circle cx="480" cy="145" r="14" fill="var(--esq-node-fill)" stroke="var(--esq-node-stroke)" stroke-width="2"/><text x="480" y="145" class="esq-label--node">3</text><circle cx="680" cy="145" r="14" fill="var(--esq-node-fill)" stroke="var(--esq-node-stroke)" stroke-width="2"/><text x="680" y="145" class="esq-label--node">4</text></svg>