<svg xmlns="http://www.w3.org/2000/svg" viewBox="0 0 600 390" class="esq-svg" role="img" aria-label="Esquemático do circuito"><defs><marker id="esq-arrow-curr" viewBox="0 0 10 10" refX="9" refY="5" markerWidth="7" markerHeight="7" orient="auto-start-reverse"><path d="M0,0 L10,5 L0,10 z" fill="var(--esq-stroke)"/></marker></defs><line x1="40" y1="310" x2="560" y2="310" stroke="var(--esq-wire)" stroke-width="2"/><g class="esq-gnd"><line x1="286" y1="318" x2="314" y2="318" stroke="var(--esq-gnd)" stroke-width="2.5" stroke-linecap="round"/><line x1="291" y1="324" x2="309" y2="324" stroke="var(--esq-gnd)" stroke-width="2.5" stroke-linecap="round"/><line x1="296" y1="330" x2="304" y2="330" stroke="var(--esq-gnd)" stroke-width="2.5" stroke-linecap="round"/><text x="322" y="324" font-size="11" fill="var(--esq-gnd)" dominant-baseline="central">GND</text></g><line x1="170" y1="90" x2="125" y2="90" stroke="var(--esq-wire)" stroke-width="2"/><line x1="125" y1="90" x2="125" y2="175" stroke="var(--esq-wire)" stroke-width="2"/><line x1="125" y1="225" x2="125" y2="310" stroke="var(--esq-wire)" stroke-width="2"/><g class="esq-sym"><line x1="125" y1="175" x2="125" y2="182" stroke="var(--esq-wire)" stroke-width="2"/><line x1="125" y1="218" x2="125" y2="225" stroke="var(--esq-wire)" stroke-width="2"/><circle cx="125" cy="200" r="18" fill="var(--esq-bg)" stroke="var(--esq-stroke)" stroke-width="2"/><text x="125" y="192" text-anchor="middle" dominant-baseline="central" font-size="14" font-weight="700" fill="var(--esq-stroke)">+</text><text x="125" y="208" text-anchor="middle" dominant-baseline="central" font-size="16" font-weight="700" fill="var(--esq-stroke)">−</text><text x="149" y="194" text-anchor="start" dominant-baseline="auto" class="esq-label--name">V1</text><text x="149" y="208" text-anchor="start" dominant-baseline="hanging" class="esq-label--val">5V</text></g><line x1="170" y1="90" x2="215" y2="90" stroke="var(--esq-wire)" stroke-width="2"/><line x1="215" y1="90" x2="215" y2="175" stroke="var(--esq-wire)" stroke-width="2"/><line x1="215" y1="225" x2="215" y2="310" stroke="var(--esq-wire)" stroke-width="2"/><g class="esq-sym"><title>R1 (R = 1k) Z_R = R Z = 1.00 k Ω Z = 1.00 k ∠ 0° Ω</title><path d="M 215.00,175.00 L 209.00,182.14 L 221.00,189.29 L 209.00,196.43 L 221.00,203.57 L 209.00,210.71 L 221.00,217.86 L 215.00,225.00" fill="none" stroke="var(--esq-stroke)" stroke-width="2" stroke-linejoin="round" stroke-linecap="round"/><text x="229" y="194" text-anchor="start" dominant-baseline="auto" class="esq-label--name">R1</text><text x="229" y="208" text-anchor="start" dominant-baseline="hanging" class="esq-label--val">1kΩ</text></g><line x1="410" y1="90" x2="365" y2="90" stroke="var(--esq-wire)" stroke-width="2"/><line x1="365" y1="90" x2="365" y2="175" stroke="var(--esq-wire)" stroke-width="2"/><line x1="365" y1="225" x2="365" y2="310" stroke="var(--esq-wire)" stroke-width="2"/><g class="esq-sym"><line x1="365" y1="175" x2="365" y2="182" stroke="var(--esq-wire)" stroke-width="2"/><line x1="365" y1="218" x2="365" y2="225" stroke="var(--esq-wire)" stroke-width="2"/><polygon points="347,200 365,182 383,200 365,218" fill="var(--esq-bg)" stroke="var(--esq-stroke)" stroke-width="2"/><text x="365" y="200" text-anchor="middle" dominant-baseline="central" font-size="14" font-weight="700" fill="var(--esq-ctrl)">E</text><text x="389" y="194" text-anchor="start" dominant-baseline="auto" class="esq-label--name">E1</text><text x="389" y="208" text-anchor="start" dominant-baseline="hanging" class="esq-label--val">3</text><text x="413" y="214" text-anchor="start" dominant-baseline="central" class="esq-label--ctrl">ctrl: v(1,0)</text></g><line x1="410" y1="90" x2="455" y2="90" stroke="var(--esq-wire)" stroke-width="2"/><line x1="455" y1="90" x2="455" y2="175" stroke="var(--esq-wire)" stroke-width="2"/><line x1="455" y1="225" x2="455" y2="310" stroke="var(--esq-wire)" stroke-width="2"/><g class="esq-sym"><title>R2 (R = 10k) Z_R = R Z = 10.0 k Ω Z = 10.0 k ∠ 0° Ω</title><path d="M 455.00,175.00 L 449.00,182.14 L 461.00,189.29 L 449.00,196.43 L 461.00,203.57 L 449.00,210.71 L 461.00,217.86 L 455.00,225.00" fill="none" stroke="var(--esq-stroke)" stroke-width="2" stroke-linejoin="round" stroke-linecap="round"/><text x="469" y="194" text-anchor="start" dominant-baseline="auto" class="esq-label--name">R2</text><text x="469" y="208" text-anchor="start" dominant-baseline="hanging" class="esq-label--val">10kΩ</text></g><circle cx="170" cy="90" r="14" fill="var(--esq-node-fill)" stroke="var(--esq-node-stroke)" stroke-width="2"/><text x="170" y="90" class="esq-label--node">1</text><circle cx="410" cy="90" r="14" fill="var(--esq-node-fill)" stroke="var(--esq-node-stroke)" stroke-width="2"/><text x="410" y="90" class="esq-label--node">2</text></svg>